<svg id="レイヤー_1" data-name="レイヤー 1" xmlns="http://www.w3.org/2000/svg" viewBox="0 0 169.76 20.06"><defs><style>.cls-1{fill:#f39;}.cls-2{fill:#666;}</style></defs><title>logo</title><path class="cls-1" d="M161.82,3.55a4.14,4.14,0,0,1,4.1-3.11,3.91,3.91,0,0,1,3.84,4c0,2.65-1.45,4.61-2.93,6.41s-4.28,4.73-5,5.47h0c-.74-.74-3.57-3.74-5-5.47s-2.93-3.76-2.93-6.41a3.92,3.92,0,0,1,3.86-4,4.13,4.13,0,0,1,4.06,3.11Z"/><path class="cls-2" d="M0,16.14,5.46.81h2l5.46,15.33H10.85L9.3,11.53H3.59L2,16.14Zm6.42-13L4.12,10H8.77L6.48,3.12Z"/><path class="cls-2" d="M15.56,14.57H15.5v5.49H13.57V4.33h1.85V6h.06A4,4,0,0,1,19,4.16c2.66,0,4.62,2,4.62,5.53v1.09c0,3.45-1.93,5.55-4.7,5.55A3.82,3.82,0,0,1,15.56,14.57Zm6.08-3.93V9.76c0-2.48-1.1-3.94-3-3.94S15.47,7.4,15.47,9.75v.89c0,2.41,1.21,4,3.22,4C20.45,14.64,21.64,13.23,21.64,10.64Z"/><path class="cls-2" d="M26.73,14.57h-.06v5.49H24.74V4.33H26.6V6h0a4,4,0,0,1,3.48-1.87c2.67,0,4.63,2,4.63,5.53v1.09c0,3.45-1.93,5.55-4.7,5.55A3.83,3.83,0,0,1,26.73,14.57Zm6.09-3.93V9.76c0-2.48-1.1-3.94-3-3.94S26.64,7.4,26.64,9.75v.89c0,2.41,1.21,4,3.22,4C31.63,14.64,32.82,13.23,32.82,10.64Z"/><path class="cls-2" d="M36,0h1.92V16.14H36Z"/><path class="cls-2" d="M39.09,10.8V9.48c0-3.11,1.76-5.34,4.86-5.34s4.86,2.23,4.86,5.47v1.1H41v.22c0,2.24,1.15,3.78,3.07,3.78a2.6,2.6,0,0,0,2.65-1.78h1.92A4.36,4.36,0,0,1,44,16.33C41,16.33,39.09,14.16,39.09,10.8Zm7.79-1.65v0c0-1.88-1.15-3.36-2.92-3.36S41,7.25,41,9.12v0Z"/><path class="cls-2" d="M54.39,16.14,50.18.81h2.16l3,12h.06l3-12h2l3,12h.07l3-12h2.18L64.41,16.14H62.67l-3.23-12h-.06l-3.23,12Z"/><path class="cls-2" d="M71.38,16.33a3.53,3.53,0,0,1-3.85-3.58c0-2.07,1.44-3.37,4.14-3.38h3.12V8.16a2.22,2.22,0,0,0-2.5-2.4,2.19,2.19,0,0,0-2.49,2H68c.12-2.07,1.53-3.58,4.38-3.58,2.52,0,4.35,1.37,4.35,3.86v8.14H74.85V14.67h0A3.77,3.77,0,0,1,71.38,16.33Zm3.41-4.11V10.85h-3c-1.62,0-2.31.76-2.31,1.83a2.12,2.12,0,0,0,2.39,2A2.63,2.63,0,0,0,74.79,12.22Z"/><path class="cls-2" d="M79.4,1.39h1.92V4.33h2.34V6H81.32v6.91c0,1.41.47,1.77,1.92,1.77a3.94,3.94,0,0,0,.5,0v1.55a6.32,6.32,0,0,1-1,.08c-2.8,0-3.37-1.08-3.37-3.4V6H77.81V4.33H79.4Z"/><path class="cls-2" d="M84.56,9.6c0-3.18,1.82-5.46,4.9-5.46C92.18,4.14,93.85,6,94,7.76h-1.9a2.56,2.56,0,0,0-2.47-1.91c-2,0-3.09,1.45-3.09,3.83v1.1c0,2.31,1.21,3.84,3.1,3.84a2.37,2.37,0,0,0,2.55-1.73H94c-.4,2-1.88,3.44-4.58,3.44-3.14,0-4.9-2.42-4.9-5.56Z"/><path class="cls-2" d="M95.39,0h1.93V5.9h.05a3.84,3.84,0,0,1,3.44-1.76c2.44,0,4.23,1.55,4.23,4.43v7.57h-1.93V8.89a2.68,2.68,0,0,0-2.88-3,2.77,2.77,0,0,0-2.91,3v7.19H95.39Z"/><path class="cls-1" d="M118.83,16.14h-9V.81h2V14.38h7.06Z"/><path class="cls-1" d="M129.07,9.69v1.06c0,3.2-1.74,5.58-5,5.58s-5.08-2.38-5.08-5.58V9.69c0-3.15,1.78-5.55,5.08-5.55S129.07,6.54,129.07,9.69Zm-8.2.07v.92c0,2.4,1.11,4,3.15,4s3.12-1.57,3.12-4V9.76c0-2.42-1.1-4-3.12-4S120.87,7.34,120.87,9.76Z"/><path class="cls-1" d="M129.45,4.33h2.05l3.08,9.48h.06l3.3-9.48h2l-4.24,11.81h-2.07Z"/><path class="cls-1" d="M140.27,10.8V9.48c0-3.11,1.76-5.34,4.86-5.34S150,6.37,150,9.61v1.1h-7.8v.22c0,2.24,1.15,3.78,3.07,3.78a2.59,2.59,0,0,0,2.65-1.78h1.92a4.36,4.36,0,0,1-4.62,3.4C142.15,16.33,140.27,14.16,140.27,10.8Zm7.79-1.65v0c0-1.88-1.15-3.36-2.92-3.36s-2.94,1.49-2.94,3.36v0Z"/></svg>